# xmcd CD database file
#
# Track frame offsets:
#	187
#	5555
#	24747
#	39552
#	54797
#	70872
#	89835
#	123702
#	153262
#	168602
#	178317
#	209765
#
# Disc length: 3323 seconds
#
# Revision: 1
# Processed by: cddbd v1.4PL0 Copyright (c) Steve Scherf et al.
# Submitted via: CDex 1.51
#
DISCID=ae0cf90c
DTITLE=Benny Goodman - Live at Carnegie Hall[CD1]
DYEAR=1978
DGENRE=Jazz
TTITLE0=Let's Dance
TTITLE1=II've found a new baby
TTITLE2=Send in the Clowns
TTITLE3=Loch Lomond
TTITLE4=Stardust
TTITLE5=I love a piano
TTITLE6=Roll'en
TTITLE7=King porter stomp
TTITLE8=Rockey Racoon
TTITLE9=Yesterday
TTITLE10=That's a Plenty
TTITLE11=How high the Moon
EXTD=YEAR: 1978
EXTT0=
EXTT1=
EXTT2=
EXTT3=
EXTT4=
EXTT5=
EXTT6=
EXTT7=
EXTT8=
EXTT9=
EXTT10=
EXTT11=
PLAYORDER=
